<?xml version="1.0" standalone="no"?>
<!DOCTYPE svg PUBLIC "-//W3C//DTD SVG 20010904//EN"
 "http://www.w3.org/TR/2001/REC-SVG-20010904/DTD/svg10.dtd">
<svg version="1.0" xmlns="http://www.w3.org/2000/svg"
 width="700.000000pt" height="700.000000pt" viewBox="0 0 700.000000 700.000000"
 preserveAspectRatio="xMidYMid meet">
<metadata>
Created by potrace 1.14, written by Peter Selinger 2001-2017
</metadata>
<g transform="translate(0.000000,700.000000) scale(0.100000,-0.100000)"
fill="#000000" stroke="none">
<path d="M290 6125 l0 -291 278 0 c152 1 284 0 293 -2 15 -3 56 -83 167 -322
22 -47 70 -148 107 -225 37 -77 84 -176 105 -220 92 -195 269 -570 357 -755
25 -52 68 -142 95 -200 28 -58 65 -136 83 -175 18 -38 58 -123 89 -187 31 -65
56 -122 56 -128 0 -9 -65 -132 -100 -190 -5 -8 -19 -33 -31 -55 -12 -22 -79
-144 -150 -272 -154 -279 -171 -323 -175 -459 -6 -174 56 -326 180 -446 40
-39 151 -105 216 -129 l65 -23 1808 -2 1807 -1 0 66 c1 95 1 418 1 471 l-1 45
-1745 0 c-960 0 -1745 3 -1745 8 0 4 61 119 136 255 75 136 146 264 156 284
l20 38 1119 0 c1228 0 1183 -2 1312 60 34 16 82 47 107 67 87 72 113 111 320
488 18 33 41 74 50 90 9 17 42 77 74 135 31 58 61 112 66 120 5 8 32 58 61
110 28 52 86 156 127 230 41 74 86 155 100 180 13 25 37 68 52 95 15 28 40 73
55 100 76 139 105 192 182 330 126 226 136 250 137 325 0 50 -6 78 -25 120
-43 91 -107 143 -204 164 -35 8 -683 11 -2213 10 l-2163 -1 -28 61 c-37 78
-100 212 -165 351 -29 61 -58 124 -66 141 l-13 31 -479 -1 -478 0 0 -291z
m5022 -927 c-16 -29 -49 -89 -74 -133 -25 -44 -62 -111 -83 -150 -21 -38 -60
-110 -88 -160 -66 -120 -86 -156 -212 -385 -137 -247 -138 -250 -188 -340 -23
-42 -62 -113 -87 -158 l-45 -82 -1023 0 -1023 0 -60 128 c-34 70 -77 161 -96
202 -20 41 -69 144 -109 229 -41 84 -74 155 -74 156 0 1 -36 78 -81 171 -79
164 -130 274 -134 284 -1 3 -32 67 -68 144 -37 76 -67 140 -67 142 0 2 797 4
1771 4 l1770 0 -29 -52z"/>
<path d="M1930 1740 c-229 -48 -421 -244 -458 -465 -8 -50 -8 -180 0 -220 52
-259 278 -456 538 -469 261 -12 500 151 584 397 32 96 39 193 19 292 -54 269
-275 459 -547 470 -50 2 -111 0 -136 -5z"/>
<path d="M4844 1739 c-99 -18 -225 -88 -302 -169 -104 -109 -153 -230 -158
-390 -6 -173 44 -298 166 -421 77 -77 182 -140 255 -153 17 -3 44 -9 60 -14
33 -10 152 -8 204 2 175 35 333 158 410 319 49 103 61 158 57 277 -6 223 -131
409 -338 505 -112 51 -230 66 -354 44z"/>
</g>
</svg>
